# Blender 4.5.0
# www.blender.org
mtllib grass.mtl
o Plane
v 0.002209 0.999997 1.000000
v -0.002209 -0.999998 1.000000
v 0.002209 0.999998 -1.000000
v -0.002209 -0.999997 -1.000000
v 0.000736 0.333332 1.000000
v -0.000736 -0.333333 1.000000
v -0.000736 -0.333332 -1.000000
v 0.000736 0.333333 -1.000000
v 0.001472 0.666665 -1.000000
v 0.001473 0.666665 1.000000
vn 1.0000 -0.0022 -0.0000
vt 0.666667 0.000000
vt 1.000000 0.000000
vt 1.000000 1.000000
vt 0.666667 1.000000
vt 0.166667 0.000000
vt 0.333333 0.000000
vt 0.333333 1.000000
vt 0.166667 1.000000
vt 0.000000 0.000000
vt 0.000000 1.000000
s 0
f 6/1/1 2/2/1 4/3/1 7/4/1
f 10/5/1 5/6/1 8/7/1 9/8/1
f 5/6/1 6/1/1 7/4/1 8/7/1
f 1/9/1 10/5/1 9/8/1 3/10/1
