# Blender 4.5.0
# www.blender.org
mtllib road 2emain.mtl
o Plane.004
v -2.980620 0.000000 2.990995
v 2.990077 0.000000 2.990995
v -2.980620 0.000000 -2.990995
v 2.990077 0.000000 -2.990995
v -1.991513 0.092790 2.990995
v 0.009457 0.092790 2.990995
v 2.000969 0.092790 2.990995
v 2.000969 0.092790 -2.990995
v 0.009457 0.092790 -2.990995
v -1.991513 0.092790 -2.990995
v -2.226302 0.026674 -2.990995
v -2.650918 0.000000 -2.990995
v -2.650918 0.000000 2.990995
v -2.226302 0.026674 2.990995
v 2.235759 0.026674 2.990995
v 2.660374 0.000000 2.990995
v 2.660374 0.000000 -2.990995
v 2.235759 0.026674 -2.990995
v -0.991028 0.092790 2.990995
v -0.991028 0.092790 -2.990995
v 1.005213 0.092790 2.990995
v 1.005213 0.092790 -2.990995
v -2.980620 0.085981 -1.980339
v 2.990077 0.092402 -1.991714
v -1.991513 0.092790 -1.980339
v 0.009457 0.092790 -1.980339
v 2.000969 0.092790 -1.980339
v -2.650918 0.085981 -1.980339
v -2.226302 0.092653 -1.980339
v 2.235759 0.092348 -1.980339
v 2.660374 0.092402 -1.991714
v -0.991028 0.092790 -1.980339
v 1.005213 0.092790 -1.980339
v -2.980620 0.085981 2.007654
v 2.990077 0.092402 2.001873
v -1.991513 0.092790 2.007654
v 0.009457 0.092790 2.007654
v 2.000969 0.092790 2.007654
v -2.650918 0.085981 2.007654
v -2.226302 0.092653 2.007654
v 2.235759 0.092348 2.007654
v 2.660374 0.092402 2.001873
v -0.991028 0.092790 2.007654
v 1.005213 0.092790 2.007654
v -2.980620 0.000000 2.226494
v -2.980620 0.000000 2.663214
v 2.990077 0.000000 2.663214
v 2.990077 0.026673 2.234280
v -1.991513 0.092790 2.663214
v -1.991513 0.092790 2.226494
v 0.009457 0.092790 2.663214
v 0.009457 0.092790 2.226494
v 2.000969 0.092790 2.663214
v 2.000969 0.092790 2.226494
v -2.650918 0.000000 2.663214
v -2.650918 0.000000 2.226494
v -2.226302 0.026674 2.663214
v -2.226302 0.026674 2.226494
v 2.235759 0.026674 2.663214
v 2.235759 0.026674 2.226494
v 2.660374 0.000000 2.663214
v 2.660374 0.026673 2.234280
v -0.991028 0.092790 2.663214
v -0.991028 0.092790 2.226494
v 1.005213 0.092790 2.663214
v 1.005213 0.092790 2.226494
v 2.990077 0.026542 -2.225085
v 2.990077 0.000000 -2.654109
v -1.991513 0.092790 -2.208284
v -1.991513 0.092790 -2.654109
v 0.009457 0.092790 -2.208284
v 0.009457 0.092790 -2.654109
v 2.000969 0.092790 -2.208284
v 2.000969 0.092790 -2.654109
v -2.650918 0.000000 -2.208284
v -2.650918 0.000000 -2.654109
v -2.226302 0.026674 -2.208284
v -2.226302 0.026674 -2.654109
v 2.235759 0.026674 -2.208284
v 2.235759 0.026674 -2.654109
v 2.660374 0.026542 -2.225085
v 2.660374 0.000000 -2.654109
v -0.991028 0.092790 -2.208284
v -0.991028 0.092790 -2.654109
v 1.005213 0.092790 -2.208284
v 1.005213 0.092790 -2.654109
v -2.980620 0.000000 -2.654109
v -2.980620 0.000000 -2.208284
v 2.228641 0.028678 -2.208284
v 2.663660 0.000000 -2.654109
v 2.235759 0.026674 -2.215410
v 2.660374 0.000208 -2.650742
v 2.220981 0.030835 2.226494
v 2.235759 0.026674 2.241193
v -2.226302 0.026674 2.243958
v -2.208950 0.031560 2.226494
v -2.205251 0.032602 -2.208284
v -2.226302 0.026674 -2.230735
v -2.650918 0.000000 -2.661469
v -2.643662 0.000456 -2.654109
vn -0.0000 1.0000 -0.0000
vn -0.2711 0.9626 -0.0000
vn -0.0627 0.9980 -0.0000
vn 0.2711 0.9626 -0.0000
vn 0.0627 0.9980 -0.0000
vn -0.0001 1.0000 -0.0000
vn 0.0019 1.0000 -0.0000
vn -0.0157 0.9999 -0.0000
vn -0.0006 1.0000 -0.0000
vn -0.0000 0.9623 0.2721
vn -0.0192 0.9626 0.2702
vn -0.0000 0.9307 0.3657
vn -0.0371 0.9440 0.3278
vn -0.0007 0.9601 0.2796
vn -0.0000 0.9981 0.0621
vn -0.0090 0.9616 -0.2742
vn -0.0011 0.9982 -0.0607
vn -0.0372 0.9480 -0.3160
vn -0.0000 0.9357 -0.3529
vn -0.0229 0.9662 -0.2567
vn -0.0000 0.9624 -0.2716
vn -0.0000 0.9981 -0.0617
vn 0.0622 0.9981 -0.0005
vn -0.0000 0.9981 -0.0618
vn 0.0097 0.9630 -0.2693
vn 0.2710 0.9626 -0.0000
vn 0.0178 0.9622 0.2717
vn 0.0010 0.9982 0.0600
vt 0.965516 0.614103
vt 0.966360 0.614103
vt 1.050200 0.714642
vt 0.965516 0.714642
vt 0.889377 -0.292084
vt 0.804693 -0.292084
vt 0.805231 -0.392623
vt 0.889915 -0.392623
vt 0.382019 1.292084
vt 0.642996 1.292084
vt 0.642996 1.392623
vt 0.382019 1.392623
vt 0.503742 1.292084
vt 0.764719 1.292084
vt 0.764719 1.392623
vt 0.503742 1.392623
vt 0.009350 1.034113
vt 0.019731 1.160182
vt 0.018278 1.160452
vt -0.057170 1.046437
vt 0.035993 1.292084
vt 0.038102 1.292084
vt 0.035993 1.294281
vt 0.798391 0.613754
vt 0.883076 0.613754
vt 0.881933 0.714642
vt 0.797249 0.714642
vt 0.842086 0.614103
vt 0.842086 0.714642
vt 0.501901 -0.292084
vt 0.240924 -0.292084
vt 0.240924 -0.392623
vt 0.501901 -0.392623
vt 0.242766 1.292084
vt 0.242766 1.392623
vt 0.242766 -0.099158
vt 0.503742 -0.099158
vt 0.503742 1.091006
vt 0.242766 1.091006
vt 0.501901 1.099158
vt 0.240924 1.099158
vt 0.240924 -0.091006
vt 0.501901 -0.091006
vt 0.783467 0.382630
vt 0.783467 0.546562
vt 0.225010 0.546562
vt 0.225010 0.382630
vt 0.785899 0.345593
vt 0.785899 0.458067
vt 0.225501 0.440104
vt 0.225501 0.327631
vt 0.424113 -0.099158
vt 0.547542 -0.099158
vt 0.547542 1.091006
vt 0.424113 1.091006
vt 0.339428 -0.099158
vt 0.339428 1.091006
vt 0.764719 -0.099158
vt 0.764719 1.091006
vt 0.382019 -0.099158
vt 0.642996 -0.099158
vt 0.642996 1.091006
vt 0.382019 1.091006
vt 0.626460 1.099158
vt 0.541776 1.099158
vt 0.548145 -0.091006
vt 0.632830 -0.091006
vt 0.783467 0.659036
vt 0.225010 0.659036
vt 0.900790 0.611533
vt 0.902577 0.765052
vt 0.823762 0.767117
vt 0.821975 0.613598
vt 0.881408 0.482152
vt 0.875149 0.482152
vt 0.797247 0.384330
vt 0.881931 0.384330
vt 0.382019 -0.196980
vt 0.642996 -0.196980
vt 0.503742 -0.196980
vt 0.764719 -0.196980
vt 1.009537 0.692788
vt 1.047732 0.493909
vt 1.149834 0.538029
vt 1.111640 0.736907
vt 1.103401 0.204040
vt 1.205504 0.248159
vt 0.815312 -0.202501
vt 0.894667 -0.202501
vt 0.814201 -0.104339
vt 0.898185 0.387777
vt 0.819370 0.389841
vt 0.501901 1.196980
vt 0.240924 1.196980
vt 0.242766 -0.196980
vt 0.242766 -0.392623
vt 0.503742 -0.392623
vt 0.503742 -0.294801
vt 0.242766 -0.294802
vt 0.501901 1.392623
vt 0.240924 1.392623
vt 0.240924 1.294802
vt 0.501901 1.294801
vt 0.842086 -0.392623
vt 0.965516 -0.392623
vt 0.965516 -0.294801
vt 0.842086 -0.294801
vt 0.842086 -0.200272
vt 0.817535 -0.398824
vt 0.902220 -0.398824
vt 0.901108 -0.300662
vt 0.816424 -0.300662
vt 0.900034 -0.205805
vt 0.881013 0.145340
vt 1.004442 0.145340
vt 1.004442 0.243162
vt 0.881013 0.243162
vt 1.004442 0.337071
vt 0.796328 0.145340
vt 0.907435 0.648668
vt 0.945630 0.449790
vt 0.764719 -0.392623
vt 0.764719 -0.294801
vt 0.382019 -0.392623
vt 0.642996 -0.392623
vt 0.642996 -0.294802
vt 0.382019 -0.294802
vt 0.939316 0.677796
vt 0.854631 0.677796
vt 0.855155 0.579974
vt 0.939839 0.579974
vt 0.855678 0.482152
vt 0.934104 0.482152
vt 0.940342 0.486064
vt 1.050200 -0.392623
vt 0.979605 0.609469
vt 0.981392 0.762988
vt 0.503742 1.191545
vt 0.242766 1.191545
vt 0.240924 -0.191545
vt 0.501901 -0.191545
vt 0.866597 0.811438
vt 0.817572 0.641524
vt 0.879084 0.601591
vt 0.928109 0.771505
vt 0.940114 0.561972
vt 0.929092 0.770866
vt 0.800676 0.411978
vt 0.881651 0.512866
vt 0.799534 0.512866
vt 0.884200 0.514479
vt 0.152772 1.135535
vt 0.167902 1.319283
vt 0.101381 1.331607
vt 0.086251 1.147859
vt 0.098031 1.332227
vt 0.019989 1.163322
vt 0.142392 1.009466
vt 0.075871 1.021790
vt 0.764719 1.191545
vt 0.642996 1.191545
vt 0.382019 1.191545
vt 0.888301 -0.091006
vt 0.803616 -0.091006
vt 0.881246 -0.191545
vt 0.888839 -0.191545
vt 0.888866 -0.196608
vt 0.783936 0.524947
vt 0.845448 0.485014
vt 0.906961 0.445081
vt 0.940261 0.560496
vt 0.968473 0.405148
vt 0.842086 0.515171
vt 0.965516 0.613314
vt 0.965516 1.291295
vt 0.966360 1.292084
vt 0.965516 1.292084
vt 0.911967 0.717317
vt 0.882404 0.868859
vt 0.848768 0.752282
vt 0.910947 0.713783
vt 0.884200 1.192460
vt 0.881651 1.190847
vt 0.884218 1.190847
vt 0.822956 0.339179
vt 0.903743 0.482979
vt 0.903856 0.492642
vt 0.824743 0.492699
vt 1.060208 0.760924
vt 0.899997 -0.202501
vt 0.900838 0.387707
vt 0.881387 1.200892
vt 0.875149 1.196980
vt 0.881408 1.196980
vt 0.805332 0.604549
vt 1.099318 0.202275
vt 0.856202 0.384330
vt 0.804154 -0.191545
vt -0.048691 1.392623
vt 0.035993 1.392623
vt 0.159423 1.196608
vt 0.159423 1.292084
vt 0.159423 1.392623
s 0
usemtl UV_tester
f 82/1/1 90/2/1 4/3/1 17/4/1
f 78/5/2 70/6/2 10/7/2 11/8/2
f 84/9/1 72/10/1 9/11/1 20/12/1
f 86/13/1 74/14/1 8/15/1 22/16/1
f 87/17/1 76/18/1 99/19/1 3/20/1
f 76/21/3 100/22/3 99/23/3
f 74/24/4 80/25/4 18/26/4 8/27/4
f 80/28/5 82/1/5 17/4/5 18/29/5
f 70/30/1 84/31/1 20/32/1 10/33/1
f 72/34/1 86/13/1 22/16/1 9/35/1
f 37/36/1 44/37/1 33/38/1 26/39/1
f 36/40/1 43/41/1 32/42/1 25/43/1
f 41/44/6 42/45/6 31/46/6 30/47/6
f 38/48/7 41/49/7 30/50/7 27/51/7
f 39/52/8 40/53/8 29/54/8 28/55/8
f 34/56/1 39/52/1 28/55/1 23/57/1
f 44/37/1 38/58/1 27/59/1 33/38/1
f 43/60/1 37/61/1 26/62/1 32/63/1
f 40/64/9 36/65/9 25/66/9 29/67/9
f 42/45/1 35/68/1 24/69/1 31/46/1
f 62/70/10 48/71/10 35/72/10 42/73/10
f 58/74/11 96/75/11 36/76/11 40/77/11
f 64/78/1 52/79/1 37/61/1 43/60/1
f 66/80/1 54/81/1 38/58/1 44/37/1
f 45/82/12 56/83/12 39/84/12 34/85/12
f 56/83/13 58/86/13 40/87/13 39/84/13
f 54/88/4 93/89/4 38/90/4
f 60/91/14 62/70/14 42/73/14 41/92/14
f 50/93/1 64/94/1 43/41/1 36/40/1
f 52/95/1 66/80/1 44/37/1 37/36/1
f 6/96/1 21/97/1 65/98/1 51/99/1
f 51/99/1 65/98/1 66/80/1 52/95/1
f 5/100/1 19/101/1 63/102/1 49/103/1
f 49/103/1 63/102/1 64/94/1 50/93/1
f 15/104/5 16/105/5 61/106/5 59/107/5
f 59/107/5 61/106/5 94/108/5
f 7/109/4 15/110/4 59/111/4 53/112/4
f 53/112/4 59/111/4 94/113/4 93/89/4 54/88/4
f 13/114/3 14/115/3 57/116/3 55/117/3
f 55/117/3 57/116/3 95/118/3
f 1/119/1 13/114/1 55/117/1
f 46/120/1 55/121/1 56/83/1 45/82/1
f 21/97/1 7/122/1 53/123/1 65/98/1
f 65/98/1 53/123/1 54/81/1 66/80/1
f 19/124/1 6/125/1 51/126/1 63/127/1
f 63/127/1 51/126/1 52/79/1 64/78/1
f 14/128/2 5/129/2 49/130/2 57/131/2
f 57/131/2 49/130/2 50/132/2 96/133/2 95/134/2
f 16/105/1 2/135/1 61/106/1
f 61/136/15 47/137/15 48/71/15 62/70/15
f 26/39/1 33/38/1 85/138/1 71/139/1
f 71/139/1 85/138/1 86/13/1 72/34/1
f 25/43/1 32/42/1 83/140/1 69/141/1
f 69/141/1 83/140/1 84/31/1 70/30/1
f 30/142/16 31/143/16 81/144/16 79/145/16
f 79/145/17 81/144/17 92/146/17 91/147/17
f 27/148/4 89/149/4 73/150/4
f 73/150/4 89/149/4 91/151/4 80/25/4 74/24/4
f 28/152/18 29/153/18 77/154/18 75/155/18
f 75/155/3 77/154/3 98/156/3 100/157/3 76/18/3
f 23/158/19 28/152/19 75/155/19 88/159/19
f 88/159/1 75/155/1 76/18/1 87/17/1
f 33/38/1 27/59/1 73/160/1 85/138/1
f 85/138/1 73/160/1 74/14/1 86/13/1
f 32/63/1 26/62/1 71/161/1 83/162/1
f 83/162/1 71/161/1 72/10/1 84/9/1
f 29/163/20 25/164/20 97/165/20 77/166/20
f 77/166/2 97/165/2 98/167/2
f 31/143/21 24/168/21 67/169/21 81/144/21
f 81/144/22 67/169/22 68/170/22 90/171/22 92/146/22
f 4/172/1 90/171/1 68/170/1
f 91/173/23 92/174/23 82/1/23 80/28/23
f 92/175/24 90/176/24 82/177/24
f 89/178/25 27/179/25 30/180/25 79/181/25
f 91/182/26 89/183/26 79/184/26
f 38/185/27 93/186/27 60/187/27 41/188/27
f 61/136/1 2/189/1 47/137/1
f 93/89/4 94/113/4 60/190/4
f 94/191/28 61/136/28 62/70/28 60/91/28
f 95/192/2 96/193/2 58/194/2
f 55/121/1 46/120/1 1/195/1
f 95/196/3 58/86/3 56/83/3 55/121/3
f 36/197/2 96/133/2 50/132/2
f 97/165/2 25/164/2 69/198/2
f 98/167/2 97/165/2 69/198/2 70/6/2 78/5/2
f 3/199/1 99/23/1 12/200/1
f 100/22/3 98/201/3 78/202/3
f 99/23/3 100/22/3 78/202/3 11/203/3 12/200/3
