# Blender 4.5.0
# www.blender.org
mtllib road emain.mtl
o Plane.001
v -2.980620 0.000000 2.990995
v 2.990077 0.000000 2.990995
v -2.980620 0.000000 -2.990995
v 2.990077 0.000000 -2.990995
v -1.991513 0.092790 2.990995
v 0.009457 0.092790 2.990995
v 2.000969 0.092790 2.990995
v 2.000969 0.092790 -2.990995
v 0.009457 0.092790 -2.990995
v -1.991513 0.092790 -2.990995
v -2.226302 0.026674 -2.990995
v -2.650918 0.000000 -2.990995
v -2.650918 0.000000 2.990995
v -2.226302 0.026674 2.990995
v 2.235759 0.026674 2.990995
v 2.660374 0.000000 2.990995
v 2.660374 0.000000 -2.990995
v 2.235759 0.026674 -2.990995
v -0.991028 0.092790 2.990995
v -0.991028 0.092790 -2.990995
v 1.005213 0.092790 2.990995
v 1.005213 0.092790 -2.990995
v -2.980620 0.000000 -1.980339
v 2.990077 0.092402 -1.991714
v -1.991513 0.092790 -1.980339
v 0.009457 0.092790 -1.980339
v 2.000969 0.092790 -1.980339
v -2.650918 0.000000 -1.980339
v -2.226302 0.026674 -1.980339
v 2.235759 0.092348 -1.980339
v 2.660374 0.092402 -1.991714
v -0.991028 0.092790 -1.980339
v 1.005213 0.092790 -1.980339
v -2.980620 0.000000 2.007654
v 2.990077 0.092402 2.001873
v -1.991513 0.092790 2.007654
v 0.009457 0.092790 2.007654
v 2.000969 0.092790 2.007654
v -2.650918 0.000000 2.007654
v -2.226302 0.026674 2.007654
v 2.235759 0.092348 2.007654
v 2.660374 0.092402 2.001873
v -0.991028 0.092790 2.007654
v 1.005213 0.092790 2.007654
v -2.980620 0.000000 2.226494
v -2.980620 0.000000 2.663214
v 2.990077 0.000000 2.663214
v 2.990077 0.026673 2.234280
v -1.991513 0.092790 2.663214
v -1.991513 0.092790 2.226494
v 0.009457 0.092790 2.663214
v 0.009457 0.092790 2.226494
v 2.000969 0.092790 2.663214
v 2.000969 0.092790 2.226494
v -2.650918 0.000000 2.663214
v -2.650918 0.000000 2.226494
v -2.226302 0.026674 2.663214
v -2.226302 0.026674 2.226494
v 2.235759 0.026674 2.663214
v 2.235759 0.026674 2.226494
v 2.660374 0.000000 2.663214
v 2.660374 0.026673 2.234280
v -0.991028 0.092790 2.663214
v -0.991028 0.092790 2.226494
v 1.005213 0.092790 2.663214
v 1.005213 0.092790 2.226494
v 2.990077 0.026542 -2.225085
v 2.990077 0.000000 -2.654109
v -1.991513 0.092790 -2.208284
v -1.991513 0.092790 -2.654109
v 0.009457 0.092790 -2.208284
v 0.009457 0.092790 -2.654109
v 2.000969 0.092790 -2.208284
v 2.000969 0.092790 -2.654109
v -2.650918 0.000000 -2.208284
v -2.650918 0.000000 -2.654109
v -2.226302 0.026674 -2.208284
v -2.226302 0.026674 -2.654109
v 2.235759 0.026674 -2.208284
v 2.235759 0.026674 -2.654109
v 2.660374 0.026542 -2.225085
v 2.660374 0.000000 -2.654109
v -0.991028 0.092790 -2.208284
v -0.991028 0.092790 -2.654109
v 1.005213 0.092790 -2.208284
v 1.005213 0.092790 -2.654109
v -2.980620 0.000000 -2.654109
v -2.980620 0.000000 -2.208284
v 2.228641 0.028678 -2.208284
v 2.663660 0.000000 -2.654109
v 2.235759 0.026674 -2.215410
v 2.660374 0.000208 -2.650742
v 2.220981 0.030835 2.226494
v 2.235759 0.026674 2.241193
vn -0.0000 1.0000 -0.0000
vn -0.2711 0.9626 -0.0000
vn -0.0627 0.9980 -0.0000
vn 0.2711 0.9626 -0.0000
vn 0.0627 0.9980 -0.0000
vn -0.0001 1.0000 -0.0000
vn 0.0019 1.0000 -0.0000
vn -0.0000 0.9623 0.2721
vn -0.0007 0.9601 0.2796
vn -0.0000 0.9981 0.0621
vn -0.0090 0.9616 -0.2742
vn -0.0011 0.9982 -0.0607
vn -0.0000 0.9624 -0.2716
vn -0.0000 0.9981 -0.0617
vn 0.0622 0.9981 -0.0005
vn -0.0000 0.9981 -0.0618
vn 0.0097 0.9630 -0.2693
vn 0.2710 0.9626 -0.0000
vn 0.0178 0.9622 0.2717
vn 0.0010 0.9982 0.0600
vt 0.965516 0.614103
vt 0.966360 0.614103
vt 1.050200 0.714642
vt 0.965516 0.714642
vt 0.889377 -0.292084
vt 0.804693 -0.292084
vt 0.805231 -0.392623
vt 0.889915 -0.392623
vt 0.382019 1.292084
vt 0.642996 1.292084
vt 0.642996 1.392623
vt 0.382019 1.392623
vt 0.503742 1.292084
vt 0.764719 1.292084
vt 0.764719 1.392623
vt 0.503742 1.392623
vt -0.048691 1.292084
vt 0.035993 1.292084
vt 0.035993 1.392623
vt -0.048691 1.392623
vt 0.159423 1.292084
vt 0.159423 1.392623
vt 0.798391 0.613754
vt 0.883076 0.613754
vt 0.881933 0.714642
vt 0.797249 0.714642
vt 0.842086 0.614103
vt 0.842086 0.714642
vt 0.501901 -0.292084
vt 0.240924 -0.292084
vt 0.240924 -0.392623
vt 0.501901 -0.392623
vt 0.242766 1.292084
vt 0.242766 1.392623
vt 0.242766 -0.099158
vt 0.503742 -0.099158
vt 0.503742 1.091006
vt 0.242766 1.091006
vt 0.501901 1.099158
vt 0.240924 1.099158
vt 0.240924 -0.091006
vt 0.501901 -0.091006
vt 0.783467 0.382630
vt 0.783467 0.546562
vt 0.225010 0.546562
vt 0.225010 0.382630
vt 0.785899 0.345593
vt 0.785899 0.458067
vt 0.225501 0.440104
vt 0.225501 0.327631
vt 0.035993 -0.099158
vt 0.159423 -0.099158
vt 0.159423 1.091006
vt 0.035993 1.091006
vt -0.048691 -0.099158
vt -0.048691 1.091006
vt 0.764719 -0.099158
vt 0.764719 1.091006
vt 0.382019 -0.099158
vt 0.642996 -0.099158
vt 0.642996 1.091006
vt 0.382019 1.091006
vt 0.881931 1.099158
vt 0.797247 1.099158
vt 0.803616 -0.091006
vt 0.888301 -0.091006
vt 0.783467 0.659036
vt 0.225010 0.659036
vt 0.900790 0.611533
vt 0.902577 0.765052
vt 0.823762 0.767117
vt 0.821975 0.613598
vt 0.881408 1.196980
vt 0.796723 1.196980
vt 0.382019 -0.196980
vt 0.642996 -0.196980
vt 0.503742 -0.196980
vt 0.764719 -0.196980
vt -0.048691 -0.196980
vt 0.035993 -0.196980
vt 0.159423 -0.196980
vt 0.815312 -0.202501
vt 0.894667 -0.202501
vt 0.814201 -0.104339
vt 0.898185 0.387777
vt 0.819370 0.389841
vt 0.501901 1.196980
vt 0.240924 1.196980
vt 0.242766 -0.196980
vt 0.242766 -0.392623
vt 0.503742 -0.392623
vt 0.503742 -0.294801
vt 0.242766 -0.294802
vt 0.501901 1.392623
vt 0.240924 1.392623
vt 0.240924 1.294802
vt 0.501901 1.294801
vt 0.842086 -0.392623
vt 0.965516 -0.392623
vt 0.965516 -0.294801
vt 0.842086 -0.294801
vt 0.842086 -0.200272
vt 0.817535 -0.398824
vt 0.902220 -0.398824
vt 0.901108 -0.300662
vt 0.816424 -0.300662
vt 0.900034 -0.205805
vt 0.035993 -0.392623
vt 0.159423 -0.392623
vt 0.159423 -0.294802
vt 0.035993 -0.294802
vt -0.048691 -0.392623
vt -0.048691 -0.294802
vt 0.764719 -0.392623
vt 0.764719 -0.294801
vt 0.382019 -0.392623
vt 0.642996 -0.392623
vt 0.642996 -0.294802
vt 0.382019 -0.294802
vt 0.880361 1.392623
vt 0.795676 1.392623
vt 0.796200 1.294802
vt 0.880884 1.294802
vt 1.050200 -0.392623
vt 0.979605 0.609469
vt 0.981392 0.762988
vt 0.503742 1.191545
vt 0.242766 1.191545
vt 0.240924 -0.191545
vt 0.501901 -0.191545
vt 0.866597 0.811438
vt 0.817572 0.641524
vt 0.879084 0.601591
vt 0.928109 0.771505
vt 0.940114 0.561972
vt 0.929092 0.770866
vt 0.800676 0.411978
vt 0.881651 0.512866
vt 0.799534 0.512866
vt 0.884200 0.514479
vt 0.159423 1.191545
vt 0.035993 1.191545
vt -0.048691 1.191545
vt 0.764719 1.191545
vt 0.642996 1.191545
vt 0.382019 1.191545
vt 0.804154 -0.191545
vt 0.888839 -0.191545
vt 0.783936 0.524947
vt 0.845448 0.485014
vt 0.906961 0.445081
vt 0.940261 0.560496
vt 0.968473 0.405148
vt 0.842086 0.515171
vt 0.965516 0.613314
vt 0.965516 1.291295
vt 0.966360 1.292084
vt 0.965516 1.292084
vt 0.911967 0.717317
vt 0.882404 0.868859
vt 0.848768 0.752282
vt 0.910947 0.713783
vt 0.884200 1.192460
vt 0.881651 1.190847
vt 0.884218 1.190847
vt 0.822956 0.339179
vt 0.903743 0.482979
vt 0.903856 0.492642
vt 0.824743 0.492699
vt 1.060208 0.760924
vt 0.899997 -0.202501
vt 0.900838 0.387707
s 0
usemtl UV_tester
f 82/1/1 90/2/1 4/3/1 17/4/1
f 78/5/2 70/6/2 10/7/2 11/8/2
f 84/9/1 72/10/1 9/11/1 20/12/1
f 86/13/1 74/14/1 8/15/1 22/16/1
f 87/17/1 76/18/1 12/19/1 3/20/1
f 76/18/3 78/21/3 11/22/3 12/19/3
f 74/23/4 80/24/4 18/25/4 8/26/4
f 80/27/5 82/1/5 17/4/5 18/28/5
f 70/29/1 84/30/1 20/31/1 10/32/1
f 72/33/1 86/13/1 22/16/1 9/34/1
f 37/35/1 44/36/1 33/37/1 26/38/1
f 36/39/1 43/40/1 32/41/1 25/42/1
f 41/43/6 42/44/6 31/45/6 30/46/6
f 38/47/7 41/48/7 30/49/7 27/50/7
f 39/51/3 40/52/3 29/53/3 28/54/3
f 34/55/1 39/51/1 28/54/1 23/56/1
f 44/36/1 38/57/1 27/58/1 33/37/1
f 43/59/1 37/60/1 26/61/1 32/62/1
f 40/63/2 36/64/2 25/65/2 29/66/2
f 42/44/1 35/67/1 24/68/1 31/45/1
f 62/69/8 48/70/8 35/71/8 42/72/8
f 58/73/2 50/74/2 36/64/2 40/63/2
f 64/75/1 52/76/1 37/60/1 43/59/1
f 66/77/1 54/78/1 38/57/1 44/36/1
f 45/79/1 56/80/1 39/51/1 34/55/1
f 56/80/3 58/81/3 40/52/3 39/51/3
f 54/82/4 93/83/4 38/84/4
f 60/85/9 62/69/9 42/72/9 41/86/9
f 50/87/1 64/88/1 43/40/1 36/39/1
f 52/89/1 66/77/1 44/36/1 37/35/1
f 6/90/1 21/91/1 65/92/1 51/93/1
f 51/93/1 65/92/1 66/77/1 52/89/1
f 5/94/1 19/95/1 63/96/1 49/97/1
f 49/97/1 63/96/1 64/88/1 50/87/1
f 15/98/5 16/99/5 61/100/5 59/101/5
f 59/101/5 61/100/5 94/102/5
f 7/103/4 15/104/4 59/105/4 53/106/4
f 53/106/4 59/105/4 94/107/4 93/83/4 54/82/4
f 13/108/3 14/109/3 57/110/3 55/111/3
f 55/111/3 57/110/3 58/81/3 56/80/3
f 1/112/1 13/108/1 55/111/1 46/113/1
f 46/113/1 55/111/1 56/80/1 45/79/1
f 21/91/1 7/114/1 53/115/1 65/92/1
f 65/92/1 53/115/1 54/78/1 66/77/1
f 19/116/1 6/117/1 51/118/1 63/119/1
f 63/119/1 51/118/1 52/76/1 64/75/1
f 14/120/2 5/121/2 49/122/2 57/123/2
f 57/123/2 49/122/2 50/74/2 58/73/2
f 16/99/1 2/124/1 61/100/1
f 61/125/10 47/126/10 48/70/10 62/69/10
f 26/38/1 33/37/1 85/127/1 71/128/1
f 71/128/1 85/127/1 86/13/1 72/33/1
f 25/42/1 32/41/1 83/129/1 69/130/1
f 69/130/1 83/129/1 84/30/1 70/29/1
f 30/131/11 31/132/11 81/133/11 79/134/11
f 79/134/12 81/133/12 92/135/12 91/136/12
f 27/137/4 89/138/4 73/139/4
f 73/139/4 89/138/4 91/140/4 80/24/4 74/23/4
f 28/54/3 29/53/3 77/141/3 75/142/3
f 75/142/3 77/141/3 78/21/3 76/18/3
f 23/56/1 28/54/1 75/142/1 88/143/1
f 88/143/1 75/142/1 76/18/1 87/17/1
f 33/37/1 27/58/1 73/144/1 85/127/1
f 85/127/1 73/144/1 74/14/1 86/13/1
f 32/62/1 26/61/1 71/145/1 83/146/1
f 83/146/1 71/145/1 72/10/1 84/9/1
f 29/66/2 25/65/2 69/147/2 77/148/2
f 77/148/2 69/147/2 70/6/2 78/5/2
f 31/132/13 24/149/13 67/150/13 81/133/13
f 81/133/14 67/150/14 68/151/14 90/152/14 92/135/14
f 4/153/1 90/152/1 68/151/1
f 91/154/15 92/155/15 82/1/15 80/27/15
f 92/156/16 90/157/16 82/158/16
f 89/159/17 27/160/17 30/161/17 79/162/17
f 91/163/18 89/164/18 79/165/18
f 38/166/19 93/167/19 60/168/19 41/169/19
f 61/125/1 2/170/1 47/126/1
f 93/83/4 94/107/4 60/171/4
f 94/172/20 61/125/20 62/69/20 60/85/20
