# Blender 4.5.0
# www.blender.org
mtllib SM-3.mtl
o Plane.016
v -1.437731 -0.148371 -2.000000
v -1.437731 -0.148371 2.000000
v 1.437731 -0.148371 -2.000000
v 1.437731 -0.148371 2.000000
v 1.180468 0.000000 -2.000000
v -1.180468 0.000000 -2.000000
v -1.180468 0.000000 2.000000
v 1.180468 0.000000 2.000000
v -1.872421 -0.148371 -2.000000
v -1.872421 -0.148371 2.000000
v 1.872421 -0.148371 -2.000000
v 1.872421 -0.148371 2.000000
v -2.000000 -0.210524 -2.000000
v -2.000000 -0.210524 2.000000
v 2.000000 -0.210524 -2.000000
v 2.000000 -0.210524 2.000000
v -2.000000 -0.148371 -2.559582
v 2.000000 -0.148371 -2.559582
v -2.000000 -0.148371 -5.435044
v 2.000000 -0.148371 -5.435045
v -2.000000 0.000000 -5.177781
v -2.000000 0.000000 -2.816845
v 2.000000 0.000000 -2.816846
v 2.000000 0.000000 -5.177782
v -2.000000 -0.148371 -2.124892
v 2.000000 -0.148371 -2.124893
v -2.000000 -0.148371 -5.869734
v 2.000000 -0.148371 -5.869735
v -2.000000 -0.210524 -1.997314
v 2.000000 -0.210524 -1.997313
v -2.000000 -0.210524 -5.997313
v 2.000000 -0.210524 -5.997313
v -1.437731 -0.148371 -1.997314
v 1.437731 -0.148371 -1.997313
v -1.180468 0.000000 -1.997313
v 1.180468 0.000000 -1.997313
v 1.180468 0.000000 -5.175506
v -1.180468 0.000000 -5.175506
v 1.437731 -0.148371 -2.813673
v -1.180468 0.000000 -2.817070
v 1.437732 -0.148371 -5.175506
v -1.437731 -0.148371 -5.175506
v 1.180468 0.000000 -2.817070
v -1.437731 -0.148371 -2.813673
v -1.861292 -0.148371 -2.559582
v -1.861292 -0.148371 -5.435044
v -1.861292 0.000000 -2.816845
v -1.861292 0.000000 -5.177781
v -1.861292 -0.148371 -2.124892
v -1.861292 -0.148371 -5.869734
v -1.861292 -0.148370 -1.997314
v -1.861292 -0.210525 -5.997313
v 1.862366 -0.148371 -2.559582
v 1.862367 -0.148371 -2.124893
v 1.862370 -0.148370 -1.997313
v 1.862367 -0.148371 -5.435045
v 1.862366 0.000000 -2.816846
v 1.862367 0.000000 -5.177782
v 1.862366 -0.148371 -5.869735
v 1.862370 -0.210525 -5.997313
v -6.000002 -0.148371 -2.559465
v -2.000001 -0.148371 -2.559465
v -6.000002 -0.148371 -5.434927
v -2.000001 -0.148371 -5.434927
v -6.000002 0.000000 -5.177664
v -6.000002 0.000000 -2.816728
v -2.000001 0.000000 -2.816728
v -2.000001 0.000000 -5.177664
v -6.000001 -0.148371 -2.124775
v -2.000001 -0.148371 -2.124775
v -6.000001 -0.148371 -5.869617
v -2.000001 -0.148371 -5.869617
v -6.000001 -0.210524 -1.997196
v -2.000001 -0.210524 -1.997196
v -6.000001 -0.210524 -5.997197
v -2.000001 -0.210524 -5.997196
v 1.999997 -0.148371 -2.559466
v 5.999997 -0.148371 -2.559466
v 1.999997 -0.148371 -5.434928
v 5.999997 -0.148371 -5.434928
v 1.999997 0.000000 -5.177665
v 1.999997 0.000000 -2.816729
v 5.999997 0.000000 -2.816729
v 5.999997 0.000000 -5.177665
v 1.999997 -0.148371 -2.124776
v 5.999997 -0.148371 -2.124776
v 1.999997 -0.148371 -5.869618
v 5.999997 -0.148371 -5.869618
v 1.999997 -0.210524 -1.997197
v 5.999997 -0.210524 -1.997197
v 1.999997 -0.210524 -5.997197
v 5.999997 -0.210524 -5.997197
vn 0.4996 0.8663 -0.0000
vn -0.4996 0.8663 -0.0000
vn -0.0000 1.0000 -0.0000
vn 0.4380 0.8990 -0.0000
vn -0.4380 0.8990 -0.0000
vn -0.0000 0.8663 -0.4996
vn -0.0000 0.8663 0.4996
vn -0.0000 0.8990 -0.4380
vn -0.4089 0.9126 -0.0000
vn -0.0000 0.8990 0.4380
vn 0.4116 0.9114 -0.0000
vt 0.221376 0.000883
vt 0.253123 0.993608
vt 0.210295 0.996690
vt 0.178548 0.003965
vt 0.830016 0.002964
vt 0.789246 0.994947
vt 0.746450 0.990990
vt 0.787220 -0.000994
vt 0.842442 1.315796
vt 0.842441 -0.315796
vt 0.961377 -0.315796
vt 0.961377 1.315796
vt 0.173898 -0.316245
vt 0.173898 1.316245
vt 0.054897 1.316245
vt 0.054897 -0.316245
vt 0.946474 1.314461
vt 0.946474 -0.314461
vt 0.980610 -0.314461
vt 0.980610 1.314461
vt 0.025887 -0.308624
vt 0.025887 1.308624
vt -0.008713 1.308624
vt -0.008713 -0.308624
vt 0.306496 0.996933
vt 0.306496 0.003067
vt 0.699985 0.003067
vt 0.699985 0.996933
vt 0.252031 0.959450
vt 0.209203 0.962532
vt 0.790649 0.960815
vt 0.747853 0.956857
vt 0.842441 -0.259656
vt 0.961377 -0.259655
vt 0.173898 1.259635
vt 0.054897 1.259635
vt 0.946474 -0.258412
vt 0.980610 -0.258412
vt 0.025887 1.252543
vt -0.008713 1.252543
vt 0.306496 0.037264
vt 0.699985 0.037264
vt 0.246644 0.791003
vt 0.203816 0.794085
vt 0.797567 0.792494
vt 0.754771 0.788536
vt 0.306496 0.205905
vt 0.699985 0.205905
vt 0.821640 0.206769
vt 0.778844 0.202811
vt 0.227899 0.204840
vt 0.185071 0.207922
vt 0.306496 0.962469
vt 0.699985 0.962469
vt 0.119232 -0.289824
vt 0.119232 1.215696
vt 0.084632 1.215696
vt 0.084632 -0.289824
vt 0.946474 1.257974
vt 0.203376 -0.260074
vt 0.203376 1.259635
vt 0.084375 1.259635
vt 0.084375 -0.260074
vt 0.842442 1.259217
vt 0.961377 1.259217
vt 0.828602 0.037363
vt 0.785806 0.033405
vt 0.222477 0.035308
vt 0.179649 0.038390
vt 0.173898 -0.260074
vt 0.054897 -0.260074
vt 0.025887 -0.252977
vt 0.980610 1.257974
vt -0.008713 -0.252977
s 0
usemtl Material
f 5/1/1 8/2/1 4/3/1 3/4/1
f 1/5/2 2/6/2 7/7/2 6/8/2
f 3/9/3 4/10/3 12/11/3 11/12/3
f 2/13/3 1/14/3 9/15/3 10/16/3
f 11/17/4 12/18/4 16/19/4 15/20/4
f 10/21/5 9/22/5 13/23/5 14/24/5
f 6/25/3 7/26/3 8/27/3 5/28/3
f 58/29/6 24/2/6 20/3/6 56/30/6
f 53/31/7 18/6/7 23/7/7 57/32/7
f 56/33/3 20/10/3 28/11/3 59/34/3
f 45/35/3 17/14/3 25/15/3 49/36/3
f 59/37/8 32/19/8 60/38/8
f 49/39/9 29/23/9 51/40/9
f 57/41/3 23/26/3 24/27/3 58/42/3
f 43/43/1 36/2/1 34/3/1 39/44/1
f 44/45/2 33/6/2 35/7/2 40/46/2
f 40/47/3 35/26/3 36/27/3 43/48/3
f 42/49/2 44/45/2 40/46/2 38/50/2
f 37/51/1 43/43/1 39/44/1 41/52/1
f 22/25/3 47/53/3 48/54/3 21/28/3
f 54/55/3 49/56/3 51/57/3 55/58/3
f 27/17/8 50/59/8 31/20/8
f 53/60/3 45/61/3 49/62/3 54/63/3
f 19/9/3 46/64/3 50/65/3 27/12/3
f 17/5/7 45/66/7 47/67/7 22/8/7
f 21/1/6 48/68/6 46/69/6 19/4/6
f 18/13/3 53/70/3 54/71/3 26/16/3
f 26/21/10 54/72/10 30/24/10
f 47/53/3 57/41/3 58/42/3 48/54/3
f 50/59/8 59/37/8 60/38/8 52/73/8
f 46/64/3 56/33/3 59/34/3 50/65/3
f 45/66/7 53/31/7 57/32/7 47/67/7
f 48/68/6 58/29/6 56/30/6 46/69/6
f 31/20/8 50/59/8 52/73/8
f 29/23/10 49/39/10 25/22/10
f 30/24/11 54/72/11 55/74/11
f 32/19/8 59/37/8 28/18/8
f 65/1/6 68/2/6 64/3/6 63/4/6
f 61/5/7 62/6/7 67/7/7 66/8/7
f 63/9/3 64/10/3 72/11/3 71/12/3
f 62/13/3 61/14/3 69/15/3 70/16/3
f 71/17/8 72/18/8 76/19/8 75/20/8
f 70/21/10 69/22/10 73/23/10 74/24/10
f 66/25/3 67/26/3 68/27/3 65/28/3
f 81/1/6 84/2/6 80/3/6 79/4/6
f 77/5/7 78/6/7 83/7/7 82/8/7
f 79/9/3 80/10/3 88/11/3 87/12/3
f 78/13/3 77/14/3 85/15/3 86/16/3
f 87/17/8 88/18/8 92/19/8 91/20/8
f 86/21/10 85/22/10 89/23/10 90/24/10
f 82/25/3 83/26/3 84/27/3 81/28/3
