# Blender 4.5.0
# www.blender.org
mtllib SM-L.mtl
o Plane.010
v -2.711208 -0.148371 -0.251490
v 2.000000 -0.148371 -1.437731
v -1.288793 -0.148371 2.247514
v 2.000000 -0.148371 1.437731
v -1.416054 0.000000 2.023932
v -2.583947 0.000000 -0.027908
v 2.000000 0.000000 -1.180468
v 2.000000 0.000000 1.180468
v -2.926238 -0.148371 -0.629269
v 2.000000 -0.148371 -1.872421
v -1.073764 -0.148371 2.625293
v 2.000000 -0.148371 1.872421
v -2.989348 -0.210524 -0.740146
v 2.000000 -0.210524 -2.000000
v -1.010653 -0.210524 2.736170
v 2.000000 -0.210524 2.000000
v 6.000058 -0.148371 1.437863
v 2.000058 -0.148371 1.437865
v 6.000057 -0.148371 -1.437599
v 2.000057 -0.148371 -1.437598
v 6.000057 0.000000 -1.180336
v 6.000058 0.000000 1.180600
v 2.000058 0.000000 1.180601
v 2.000057 0.000000 -1.180334
v 6.000058 -0.148371 1.872553
v 2.000058 -0.148371 1.872554
v 6.000056 -0.148371 -1.872289
v 2.000057 -0.148371 -1.872287
v 6.000058 -0.210524 2.000132
v 2.000058 -0.210524 2.000134
v 6.000056 -0.210524 -1.999868
v 2.000057 -0.210524 -1.999867
vn 0.1227 0.8588 0.4975
vn -0.1250 0.8588 -0.4969
vn -0.0000 1.0000 -0.0000
vn 0.1070 0.8930 0.4372
vn -0.1102 0.8930 -0.4364
vn -0.0000 0.8663 -0.4996
vn -0.0000 0.8663 0.4996
vn -0.0000 0.8990 -0.4380
vn -0.0000 0.8990 0.4380
vt 0.221376 0.000883
vt 0.253123 0.993608
vt 0.210295 0.996690
vt 0.178548 0.003965
vt 0.830016 0.002964
vt 0.789246 0.994947
vt 0.746450 0.990990
vt 0.787220 -0.000994
vt 0.842442 1.315796
vt 0.842441 -0.315796
vt 0.961377 -0.315796
vt 0.961377 1.315796
vt 0.173898 -0.316245
vt 0.173898 1.316245
vt 0.054897 1.316245
vt 0.054897 -0.316245
vt 0.946474 1.314461
vt 0.946474 -0.314461
vt 0.980610 -0.314461
vt 0.980610 1.314461
vt 0.025887 -0.308624
vt 0.025887 1.308624
vt -0.008713 1.308624
vt -0.008713 -0.308624
vt 0.306496 0.996933
vt 0.306496 0.003067
vt 0.699985 0.003067
vt 0.699985 0.996933
s 0
usemtl Material
f 5/1/1 3/4/1 4/3/1 8/2/1
f 1/5/2 6/8/2 7/7/2 2/6/2
f 3/9/3 11/12/3 12/11/3 4/10/3
f 2/13/3 10/16/3 9/15/3 1/14/3
f 11/17/4 15/20/4 16/19/4 12/18/4
f 10/21/5 14/24/5 13/23/5 9/22/5
f 6/25/3 5/28/3 8/27/3 7/26/3
f 21/1/6 19/4/6 20/3/6 24/2/6
f 17/5/7 22/8/7 23/7/7 18/6/7
f 19/9/3 27/12/3 28/11/3 20/10/3
f 18/13/3 26/16/3 25/15/3 17/14/3
f 27/17/8 31/20/8 32/19/8 28/18/8
f 26/21/9 30/24/9 29/23/9 25/22/9
f 22/25/3 21/28/3 24/27/3 23/26/3
