# Blender 4.5.0
# www.blender.org
mtllib SM.mtl
o Plane.008
v 2.000000 -0.148371 -1.714712
v -1.999999 -0.148371 -1.714713
v 1.999999 -0.148371 1.714713
v -2.000000 -0.148371 1.714712
v 2.000000 -0.113025 1.609165
v 2.000000 -0.113025 -1.609164
v -2.000000 -0.113025 -1.609165
v -2.000000 -0.113025 1.609164
v 2.000001 -0.148371 -1.872420
v -1.999999 -0.148371 -1.872422
v 1.999999 -0.148371 1.872422
v -2.000001 -0.148371 1.872420
v 2.000001 -0.210524 -1.999999
v -1.999999 -0.210524 -2.000001
v 1.999999 -0.210524 2.000001
v -2.000001 -0.210524 1.999999
vn -0.0000 0.9482 0.3175
vn -0.0000 0.9482 -0.3175
vn -0.0000 1.0000 -0.0000
vn -0.0000 0.8990 0.4380
vn -0.0000 0.8990 -0.4380
vt 0.206638 0.000883
vt 0.238384 0.993608
vt 0.210295 0.996690
vt 0.178548 0.003965
vt 0.830016 0.002964
vt 0.789246 0.994947
vt 0.766102 0.990990
vt 0.806872 -0.000994
vt 0.940569 1.315796
vt 0.940569 -0.315796
vt 0.990985 -0.315796
vt 0.990985 1.315796
vt 0.013921 -0.316245
vt 0.013921 1.316245
vt -0.030770 1.316245
vt -0.030770 -0.316245
vt 0.946474 1.314461
vt 0.946474 -0.314461
vt 0.980610 -0.314461
vt 0.980610 1.314461
vt 0.025887 -0.308624
vt 0.025887 1.308624
vt -0.008713 1.308624
vt -0.008713 -0.308624
vt 0.261260 0.996933
vt 0.261260 0.003067
vt 0.745221 0.003067
vt 0.745221 0.996933
s 0
usemtl Material
f 5/1/1 8/2/1 4/3/1 3/4/1
f 1/5/2 2/6/2 7/7/2 6/8/2
f 3/9/3 4/10/3 12/11/3 11/12/3
f 2/13/3 1/14/3 9/15/3 10/16/3
f 11/17/4 12/18/4 16/19/4 15/20/4
f 10/21/5 9/22/5 13/23/5 14/24/5
f 6/25/3 7/26/3 8/27/3 5/28/3
