# Blender 4.5.0
# www.blender.org
mtllib mechuka realistic assets 2.mtl
o Plane.001
v -1.000000 0.000000 4.912648
v 1.000000 0.000000 4.912648
v -1.000000 0.000000 -4.912648
v 1.000000 0.000000 -4.912648
v -2.850614 -0.072906 4.912648
v 2.850614 -0.072906 4.912648
v -2.850614 -0.072906 -4.912648
v 2.850614 -0.072906 -4.912648
v 1.000000 0.000000 -4.912648
v -1.000000 0.000000 -4.912648
v -1.000000 0.000000 -4.912648
v -1.000000 0.000000 4.912648
v 1.000000 0.000000 4.912648
v 1.000000 0.000000 -4.912648
v -2.850614 -0.072906 -4.912648
v -2.850614 -0.072906 4.912648
v 2.850614 -0.072906 4.912648
v 2.850614 -0.072906 -4.912648
v 1.925307 -0.036453 -4.912648
v 1.925307 -0.036453 4.912648
v 1.925307 -0.036453 -4.912648
v 1.925307 -0.036453 4.912648
v -1.925307 -0.036453 4.912648
v -1.925307 -0.036453 -4.912648
v -1.925307 -0.036453 4.912648
v -1.925307 -0.036453 -4.912648
v -1.000000 0.000000 4.912648
v 1.000000 0.000000 4.912648
v -0.704646 2.541330 -4.912648
v -0.642729 2.596468 -4.912648
v -0.642729 2.596468 4.912648
v -0.704646 2.541330 4.912648
v 0.704646 2.541330 4.912648
v 0.642729 2.596468 4.912648
v 0.642729 2.596468 -4.912648
v 0.704646 2.541330 -4.912648
vn -0.0000 1.0000 -0.0000
vn 0.0394 0.9992 -0.0000
vn -0.0394 0.9992 -0.0000
vn 0.6650 0.7468 -0.0000
vn 0.0197 0.9998 -0.0000
vn -0.6650 0.7468 -0.0000
vn -0.0197 0.9998 -0.0000
vn -0.0000 -0.0000 -1.0000
vn -0.8872 0.4613 -0.0000
vn -0.3558 0.9346 -0.0000
vn 0.8872 0.4613 -0.0000
vn 0.3558 0.9346 -0.0000
vn -0.0000 -0.0000 1.0000
vt 0.000000 0.000000
vt -1.238175 0.011457
vt 2.183954 0.011456
vt 2.183954 0.245221
vt -1.238175 0.245222
vt -1.238880 0.009969
vt 2.183250 0.009968
vt 2.183250 0.243733
vt -1.238880 0.243734
vt 1.085253 0.243890
vt -0.109268 0.243890
vt 1.085253 0.242203
vt -0.109268 0.242203
vt 2.181381 0.247815
vt -1.154735 0.247815
vt -1.154735 0.017137
vt 2.181381 0.017137
vt 2.175621 0.249283
vt -1.160497 0.249283
vt -1.160497 0.018605
vt 2.175621 0.018605
vt 0.494507 0.826295
vt 0.721042 0.825956
vt 0.711122 0.839260
vt 0.504511 0.839571
vt 1.005856 0.559251
vt -0.003933 0.559251
vt -0.003933 0.541494
vt 1.005856 0.541494
vt -0.003933 0.335131
vt 1.005856 0.335131
vt 1.005856 0.346659
vt -0.003933 0.346659
vt -0.109268 0.229744
vt 1.085253 0.229744
vt 1.085253 0.798183
vt -0.109268 0.798183
vt 0.494508 0.823847
vt 0.721042 0.824189
vt 0.711037 0.837466
vt 0.504427 0.837150
vt -0.109268 0.231431
vt 1.085253 0.231431
vt 1.085253 0.799870
vt -0.109268 0.799870
vt 0.104484 0.255827
vt 0.408779 0.255828
vt 0.364039 0.835797
vt 0.149493 0.836117
vt 0.408777 0.257323
vt 0.363768 0.837611
vt 0.149222 0.837287
vt 0.104484 0.257323
s 0
usemtl Material.004
f 19/1/1 4/1/1 14/1/1 21/1/1
f 23/1/1 1/1/1 12/1/1 25/1/1
f 4/1/1 3/1/1 10/1/1 9/1/1
f 1/1/1 2/1/1 28/1/1 27/1/1
s 1
f 21/2/2 22/3/2 17/4/2 18/5/2
f 25/6/3 26/7/3 15/8/3 16/9/3
s 0
f 7/1/1 5/1/1 16/1/1 15/1/1
s 1
f 4/10/4 2/11/4 13/11/5 14/10/5
f 1/12/6 3/13/6 11/13/7 12/12/7
s 0
f 24/1/1 7/1/1 15/1/1 26/1/1
f 20/1/1 6/1/1 17/1/1 22/1/1
f 6/1/1 8/1/1 18/1/1 17/1/1
f 2/1/1 20/1/1 22/1/1 13/1/1
s 1
f 14/14/5 13/15/5 22/16/2 21/17/2
s 0
f 8/1/1 19/1/1 21/1/1 18/1/1
f 3/1/1 24/1/1 26/1/1 11/1/1
s 1
f 12/18/7 11/19/7 26/20/3 25/21/3
s 0
f 5/1/1 23/1/1 25/1/1 16/1/1
f 33/22/8 32/23/8 31/24/8 34/25/8
s 1
f 29/26/9 32/27/9 31/28/10 30/29/10
f 33/30/11 36/31/11 35/32/12 34/33/12
f 3/34/6 1/35/6 32/36/9 29/37/9
f 31/28/10 34/33/12 35/32/12 30/29/10
s 0
f 29/38/13 36/39/13 35/40/13 30/41/13
s 1
f 2/42/4 4/43/4 36/44/11 33/45/11
s 0
f 2/46/8 1/47/8 32/48/8 33/49/8
f 4/50/13 36/51/13 29/52/13 3/53/13
